<svg width="1820" height="1016" viewBox="0 0 1820 1016" fill="none" xmlns="http://www.w3.org/2000/svg">
<g opacity="0.1">
<g clip-path="url(#clip0_11_2753)">
<path d="M1818.42 328.053C1817.9 326.45 1817.95 324.273 1816.76 323.323C1810.49 318.297 1804.29 313.072 1797.35 308.857C1780.86 298.844 1765.04 288.079 1751.65 274.899C1737.97 261.443 1719.79 257.584 1701.04 254.259C1686.5 251.687 1671.66 249.767 1657.6 245.77C1641.24 241.119 1630.49 229.345 1620.24 217.729C1607.86 203.659 1596.77 188.896 1590.59 171.6C1586.28 159.529 1587.64 147.339 1588.18 135.05C1588.6 125.195 1588.56 115.201 1587.15 105.465C1586.62 101.666 1582.09 98.6577 1575.84 100.478C1564.33 103.862 1552.37 106.059 1540.96 109.68C1527.98 113.796 1514.86 112.193 1502.09 110.67C1482.34 108.335 1464.05 108.691 1447.56 120.465C1433.23 130.696 1416.72 135.841 1397.89 134.456C1389.65 133.843 1381.31 134.377 1373.03 134.357C1347.86 134.298 1327.13 143.401 1310.19 159.291C1303.05 166 1303.39 174.47 1307.78 182.603C1310.35 187.333 1312.85 192.22 1316.39 196.337C1328.8 210.822 1338.26 226.555 1344.33 243.949C1347.23 252.28 1352.77 259.563 1360.69 264.53C1386.91 280.955 1396.52 304.405 1399.76 331.476C1401.1 342.736 1401.19 353.64 1398.62 364.583C1394.18 383.521 1381.19 396.78 1362.94 406.694C1336.14 421.22 1309.57 436.121 1282.83 450.745C1264.89 460.56 1244.88 465.646 1224.53 469.228C1203.13 472.988 1183.8 480.626 1165.46 490.719C1158.54 494.518 1151.56 498.199 1144.46 501.741C1132.79 507.579 1120.92 506.372 1110.39 500.237C1092.16 489.611 1075.51 477.282 1062.77 461.154C1051.46 446.827 1037.22 435.21 1019.39 427.216C1014.33 424.94 1009.4 421.873 1005.45 418.271C989.895 404.023 974.633 389.518 959.526 374.893C949.73 365.414 946.45 353.66 945.468 341.153C944.018 322.769 943.036 304.326 940.537 286.04C939.421 277.808 935.605 269.754 932.147 261.937C928.911 254.596 924.158 247.768 920.7 240.486C912.042 222.24 894.86 220.281 881.181 233.778C873.394 241.456 867.079 250.381 860.876 259.187C849.986 274.642 834.367 281.232 814.195 283.666C793.22 286.199 774.52 282.023 755.821 275.018C748.859 272.406 736.988 272.366 731.655 279.075C728.174 283.468 724.001 287.426 720.074 291.522C700.728 311.568 676.517 319.068 646.996 315.111C618.679 311.311 591.01 312.716 567.87 330.289C562.515 334.346 557.918 339.807 554.727 345.408C548.903 355.718 552.786 364.089 567.044 369.234C590.876 377.842 615.577 384.61 641.573 385.065C652.418 385.263 663.396 383.383 674.196 381.76C693.387 378.871 718.534 386.173 721.882 411.464C723.778 425.791 718.668 437.763 709.787 448.608C699.411 461.273 688.165 473.463 676.406 485.158C663.151 498.338 646.705 506.827 626.02 506.57C612.476 506.392 600.828 501.108 590.385 494.083C584.315 490.006 578.536 485.119 574.118 479.637C561.354 463.865 542.387 458.918 522.617 455.791C509.028 453.634 495.282 453.238 481.425 456.167C462.927 460.066 448.646 469.921 434.923 480.527C421.2 491.134 410.154 503.819 400.47 517.573C393.954 526.834 389.782 536.748 389.246 547.316C388.644 558.932 394.557 568.292 405.982 575C413.457 579.394 420.999 584.262 426.868 590.198C439.609 603.061 440.122 617.765 431.643 632.765C427.649 639.83 422.628 646.459 418.567 653.504C410.154 668.049 394.914 676.202 381.258 685.938C372.243 692.369 365.214 700.186 367.378 711.367C368.249 715.879 369.944 720.668 372.823 724.388C385.81 741.15 403.036 753.28 424.725 760.385C437.266 764.501 449.784 768.736 461.968 773.604C466.899 775.583 470.982 779.283 475.244 782.43C481.314 786.902 486.915 791.928 493.207 796.124C505.592 804.356 524.96 800.853 535.113 790.682C541.852 783.934 541.584 774.296 535.782 767.311C530.338 760.761 523.777 754.962 518.065 748.59C509.92 739.547 504.922 728.841 504.342 717.581C503.315 697.673 512.085 684.375 536.675 681.763C564.277 678.834 592.058 677.033 619.058 670.7C622.227 669.968 625.262 668.84 628.386 667.97C645.924 663.082 645.434 655.74 643.805 644.539C643.001 638.939 640.636 633.537 639.32 627.976C636.486 616.023 645.947 601.063 659.536 597.817C674.085 594.334 689.013 592.098 703.785 589.407C711.796 587.943 719.806 585.766 727.884 585.449C743.615 584.796 756.446 593.404 762.114 606.623C768.696 621.96 764.546 636.406 758.186 650.753C754.817 658.332 751.269 665.852 748.145 673.51C745.356 680.358 747.409 686.492 754.371 688.471C765.863 691.756 777.734 694.012 790.073 692.152C796.254 691.222 802.703 691.36 808.683 689.916C821.491 686.829 831.198 680.021 837.535 669.394C843.917 658.689 851.504 649.031 867.012 647.943C872.747 647.547 878.437 646.677 884.105 645.905C899.39 643.867 914.652 641.531 929.982 639.77C949.619 637.514 969.188 637.039 989.092 638.682C1004.82 639.968 1016.18 647.033 1028.03 654.75C1038.14 661.34 1049.14 666.861 1059.81 672.778C1063.35 674.737 1067.21 676.261 1070.65 678.359C1084.48 686.73 1099.14 689.183 1115.81 686.116C1135.74 682.435 1155.96 679.784 1174.79 672.719C1193.91 665.555 1212.5 657.283 1231.67 650.258C1238.63 647.706 1246.55 646.498 1254.14 646.122C1267.06 645.469 1280.09 645.331 1292.99 646.103C1309.77 647.092 1323.49 642.085 1332.39 629.955C1341.77 617.191 1355.06 609.75 1369.99 603.991C1388.16 596.986 1401.57 585.073 1414.29 572.21C1425.69 560.673 1439.43 550.937 1454.92 545.099C1472.64 538.43 1488.01 529.248 1501.89 518.206C1514.7 508.014 1529.54 501.108 1544.11 493.648C1574.21 478.252 1604.31 462.796 1631.76 443.799C1642.25 436.536 1653.89 432.44 1666.1 428.779C1681.16 424.267 1696.36 420.052 1711.13 414.887C1724.25 410.316 1737.8 408.594 1751.61 407.387C1764.59 406.239 1777.54 404.834 1790.48 403.251C1802.97 401.727 1809.62 392.387 1818.33 385.916C1819.35 385.164 1818.46 382.393 1818.46 380.553" stroke="#1B72E0" stroke-linecap="round" stroke-linejoin="round"/>
<path d="M1818.42 475.58C1818.15 474.67 1818.24 473.245 1817.59 472.889C1803.67 465.448 1789.7 458.067 1775.66 450.765C1754.71 439.881 1733.98 442.354 1712.62 450.587C1692.81 458.245 1676.14 469.643 1659.83 481.754C1649.36 489.512 1637.61 495.25 1624.91 499.802C1606.88 506.253 1595.16 517.513 1593.8 535.561C1593.4 540.845 1592.78 546.148 1593.11 551.412C1593.8 562.573 1603.13 567.936 1612.39 573.556C1626.45 582.065 1640.35 591.049 1648.81 604.585C1652.67 610.759 1655.5 617.666 1657.33 624.533C1659.83 633.952 1654.43 642.362 1643.47 644.955C1630.8 647.963 1617.7 649.902 1604.65 651.188C1594.67 652.158 1584.43 650.951 1574.37 651.465C1553.66 652.554 1534.27 646.855 1514.54 642.996C1497.79 639.711 1486.45 646.597 1486.74 661.696C1486.92 670.443 1488.64 679.249 1490.53 687.877C1493.19 699.909 1496.8 711.763 1499.61 723.775C1500.22 726.367 1499.21 729.256 1498.97 732.027C1495.6 731.572 1491.49 732.027 1489.02 730.463C1482.61 726.407 1476.83 721.578 1471.01 716.829C1454.54 703.412 1435.75 699.276 1414.24 705.114C1405.23 707.548 1395.88 709.19 1387.11 712.198C1379.25 714.889 1372.72 712.119 1366.09 709.863C1357.34 706.875 1349.26 701.848 1340.29 699.968C1330.85 697.99 1320.68 698.187 1310.84 698.385C1299.1 698.623 1288.64 695.813 1278.1 691.538C1268.15 687.501 1257.66 683.148 1247.04 682.277C1238.52 681.565 1229.28 685.384 1220.76 688.115C1216.41 689.52 1212.59 692.666 1209.06 695.556C1181.26 718.214 1153.01 740.516 1126.08 763.966C1112.09 776.137 1100.6 790.523 1087.72 803.723C1073.42 818.406 1057.73 831.348 1036.51 838.373C1016.52 845.003 1003.93 858.063 999.089 876.804C995.942 889.033 992.952 901.322 988.824 913.295C986.281 920.617 987.82 927.345 989.985 933.994C992.885 942.919 996.857 951.567 1000.74 960.215C1007.41 975.116 1021.92 979.45 1038 980.815C1049.21 981.765 1060.01 979.489 1069.82 974.641C1084.17 967.576 1099.39 962.728 1115.72 961.798C1124.18 961.323 1132.82 962.847 1141.36 963.697C1155.82 965.122 1170.59 965.934 1184.01 960.689C1203.95 952.893 1211.99 937.516 1212.84 918.855C1213.13 912.661 1213.37 906.408 1212.79 900.254C1210.8 879.139 1222.16 863.209 1238.74 850.148C1249.79 841.441 1262.84 834.712 1275.07 827.212C1287.27 819.732 1299.64 818.465 1312.42 826.44C1316.75 829.151 1321.73 831.051 1326.35 833.406C1340.69 840.748 1355.73 840.926 1371.47 837.621C1390.54 833.604 1409.67 829.567 1428.99 826.698C1444.92 824.323 1460.9 824.659 1474.87 834.039C1482.75 839.343 1486.52 846.249 1486.45 854.778C1486.23 883.888 1482.17 912.503 1471.77 940.267C1466.41 954.614 1469.07 963.084 1483.53 971.039C1494.37 977.015 1506.33 981.884 1518.45 985.446C1529.23 988.612 1540.05 986.138 1548.62 978.816C1552.16 975.769 1556.14 972.82 1558.64 969.12C1573.59 947.055 1596.57 936.013 1624.06 931.362C1637.94 929.007 1652.04 927.721 1666.01 925.722C1679.27 923.822 1692.48 921.725 1705.66 919.528C1724.85 916.342 1743.93 916.322 1762.34 922.457C1771.96 925.663 1779.61 931.204 1784.36 940.148C1793.47 957.266 1804.4 973.513 1817.52 988.533C1818.37 989.502 1818.13 991.244 1818.37 992.609" stroke="#1B72E0" stroke-linecap="round" stroke-linejoin="round"/>
<path d="M234.297 2.00787C216.491 27.6545 198.885 53.6178 191.878 83.4003C185.787 109.324 167.623 122.009 140.266 127.55C130.537 129.509 120.875 132.062 111.548 135.169C102.533 138.157 97.2892 145.103 95.3925 152.999C92.8933 163.388 92.0454 174.094 90.5057 184.661C89.1892 193.625 87.5157 202.55 86.7347 211.554C85.9537 220.242 84.8603 229.167 86.1545 237.696C87.9173 249.371 98.1148 254.892 109.919 258.494C115.274 260.117 120.451 262.333 125.472 264.668C138.481 270.724 144.439 282.3 141.002 294.946C137.544 307.611 133.527 320.177 130.247 332.881C127.525 343.369 125.226 353.957 123.263 364.583C121.299 375.131 115.029 383.502 107.621 391.457C105.858 393.337 103.805 395.019 102.221 396.998C96.0173 404.715 96.8206 410.89 104.519 417.658C114.917 426.82 125.36 435.943 135.558 445.263C139.016 448.41 141.917 452.051 144.93 455.573C154.458 466.695 153.498 476.51 145.711 487.968C143.658 490.976 141.493 493.905 139.507 496.933C128.373 514.011 131.207 531.603 137.12 549.314C139.396 556.161 141.337 563.087 143.368 569.994C147.362 583.569 142.051 594.651 131.742 604.486C126.052 609.928 120.563 615.331 118.309 623.029C115.877 631.36 118.197 637.87 124.691 643.768C131.742 650.159 140.288 650.911 149.571 649.289C159.791 647.488 167.668 641.69 175.924 636.782C193.24 626.511 209.975 615.43 227.38 605.278C238.024 599.084 250.386 596.689 263.06 596.254C272.365 595.937 281.715 595.957 291.042 596.254C313.579 596.907 319.604 604.387 323.71 617.567C326.477 626.452 329.422 635.179 335.201 643.154C346.894 659.282 367.735 654.671 377.509 641.116C387.215 627.659 381.392 616.498 373.381 605.199C370.324 600.885 366.731 596.887 363.317 592.771C354.771 582.441 354.035 571.062 357.069 558.991C366.218 522.48 386.903 491.728 416.201 465.27C427.448 455.118 437.958 443.799 452.841 437.961C463.53 433.766 475.423 431.906 486.915 429.491C497.447 427.275 508.336 426.345 518.712 423.733C529.847 420.943 532.279 414.946 528.129 405.27C524.112 395.89 516.034 389.616 507.957 383.165C499.366 376.318 490.507 369.57 483.21 361.714C474.084 351.879 472.098 343.468 488.454 334.979C502.981 327.439 518.69 321.166 531.699 311.925C551.581 297.795 574.497 288.93 596.588 278.639C608.392 273.138 620.107 277.511 631.532 281.806C639.275 284.715 647.375 287.584 655.609 288.593C671.05 290.473 686.268 282.815 691.334 268.824C692.829 264.668 694.748 260.611 695.93 256.396C700.259 241.099 711.773 231.799 727.906 226.871C741.027 222.874 748.658 214.978 751.091 203.302C755.04 184.344 765.795 170.235 785.343 161.191C809.71 149.931 818.3 130.756 818.055 107.503C817.966 99.6867 818.01 91.87 818.055 84.0732C818.122 66.3619 815.4 48.9871 811.338 31.6321C809.04 21.7969 809.509 11.467 808.728 1.35483" stroke="#1B72E0" stroke-linecap="round" stroke-linejoin="round"/>
<path d="M615.176 1014.63C616.202 1014.63 617.474 1014.99 618.255 1014.58C631.777 1007.53 645.724 1001 658.554 993.065C668.774 986.752 671.831 976.204 673.438 965.676C674.687 957.424 674.71 948.974 676.763 940.9C681.605 921.943 692.606 907.497 715.433 902.173C733.195 898.037 750.845 893.446 768.25 888.321C777.934 885.471 786.034 888.123 793.889 892.022C801.208 895.643 807.679 900.63 814.998 904.251C842.846 917.985 864.825 905.973 872.457 880.88C877.321 864.851 879.664 848.584 878.749 831.942C878.147 820.998 872.769 815.458 861.59 816.645C856.257 817.199 850.344 817.318 845.367 815.873C835.817 813.103 830.194 804.356 832.358 794.085C834.434 784.23 838.16 774.494 842.4 765.174C845.345 758.702 849.652 758.623 855.364 763.729C864.491 771.882 871.14 781.519 876.362 791.968C881.516 802.258 885.153 801.783 895.105 796.915C909.52 789.851 918.334 780.055 919.205 765.075C919.472 760.464 919.696 755.497 921.681 751.381C924.649 745.286 928.978 740.398 936.833 737.192C952.854 730.622 969.277 724.151 982.086 712.693C984.674 710.378 987.329 708.161 989.851 705.786C1005.52 691.004 993.131 671.967 974.253 668.108C954.885 664.131 935.538 665.516 917.576 674.124C907.445 678.992 901.487 686.848 900.617 696.862C899.39 710.991 892.673 721.4 878.772 728.663C868.73 733.907 859.559 740.279 852.977 749.204C849.719 753.617 845.591 754.408 840.548 750.688C834.567 746.295 828.163 742.357 821.96 738.221C805.135 727 786.748 722.667 765.996 727.851C746.271 732.799 728.397 728.504 711.573 718.966C703.45 714.355 694.882 710.378 686.759 705.786C676.963 700.226 666.119 698.662 654.85 698.247C642.667 697.792 630.483 696.921 618.322 696.961C596.901 697.04 576.617 702.502 556.981 709.408C540.379 715.246 540.714 729.949 553.054 738.894C556.334 741.288 559.859 743.406 563.139 745.82C581.035 758.94 582.441 771.981 574.564 791.216C571.217 799.369 564.523 805.662 554.682 809.402C540.625 814.745 526.589 819.099 511.081 819.712C497.603 820.247 487.116 815.517 477.654 807.839C471.429 802.793 465.27 797.687 458.978 792.68C447.486 783.538 432.759 781.895 418.544 779.719C404.107 777.522 390.897 773.267 378.915 765.807C371.261 761.057 363.273 756.724 355.641 751.954C341.383 743.049 325.205 740.417 308.202 739.448C294.679 738.676 281.023 737.726 267.813 735.233C245.053 730.919 236.35 738.023 232.133 756.823C227.983 775.306 222.092 792.898 209.573 808.571C195.85 825.768 177.932 836.216 154.279 838.848C147.005 839.66 139.708 840.412 132.523 841.639C115.877 844.468 107.621 852.522 104.452 867.76C103.136 874.053 101.841 880.564 98.8958 886.302C92.3801 899.007 74.819 904.884 58.7082 900.095C46.1231 896.355 33.962 891.467 21.3099 887.945C14.9504 886.184 7.89918 886.382 1.16034 885.689" stroke="#1B72E0" stroke-linecap="round" stroke-linejoin="round"/>
<path d="M260.74 2.00787C254.268 10.9723 248.021 20.0753 241.237 28.8419C235.368 36.4013 228.295 43.2681 222.783 51.0254C213.411 64.1851 209.44 79.0863 207.052 94.3833C205.758 102.695 204.731 111.105 202.254 119.159C198.863 130.201 188.487 135.149 177.687 140.076C165.526 145.637 153.364 151.772 142.765 159.371C118.488 176.805 119.313 205.637 137.164 226.02C141.895 231.423 146.916 236.667 151.914 241.891C161.464 251.865 166.106 263.441 168.493 276.324C170.836 289.029 168.114 301.179 166.909 313.607C165.905 324.154 164.566 335.394 170.033 345.19C176.259 356.331 186.568 366.028 204.865 357.182C214.639 352.453 224.926 347.96 236.64 348.059C251.011 348.198 264.399 358.825 266.184 371.49C267.032 377.585 264.287 381.701 256.812 383.798C251.568 385.263 246.012 386.272 240.523 386.549C231.486 386.984 222.337 387.202 213.345 386.529C203.749 385.797 197.546 389.834 193.217 396.384C183.756 410.692 182.105 426.345 184.559 442.513C187.616 462.638 185.608 481.735 170.635 498.397C166.797 502.671 163.83 507.54 160.46 512.131C152.807 522.619 154.681 533.443 161.464 543.021C170.234 555.409 182.462 564.73 199.331 567.936C201.607 568.371 203.995 568.688 206.316 568.609C226.041 568.015 245.254 571.161 264.667 573.853C281.648 576.208 299.499 577.533 314.293 566.511C318.89 563.087 324.067 559.367 326.566 554.756C339.776 530.376 352.339 505.739 364.745 481.042C366.977 476.589 367.111 471.345 368.829 466.635C372.466 456.682 375.969 446.649 380.566 437.031C385.029 427.75 386.1 417.855 383.801 408.812C380.744 396.82 386.836 389.141 394.378 381.147C399.511 375.705 403.706 369.887 404.531 362.545C405.446 354.313 401.898 349.088 391.254 346.08C387.037 344.893 382.485 344.161 378.067 344.022C368.226 343.726 358.386 343.983 348.523 343.923C334.354 343.825 321.835 332.327 322.081 319.82C322.17 314.655 324.335 310.381 329.132 307.452C333.93 304.523 338.66 301.298 343.926 299.26C360.171 292.947 371.261 282.142 377.888 268.052C384.27 254.497 392.37 242.01 403.036 230.967C415.688 217.867 422.338 202.61 427.336 186.165C431.286 173.164 436.931 160.38 443.625 148.289C451.592 133.922 450.989 119.971 443.938 106.217C438.002 94.6405 435.615 82.8264 435.503 70.3C435.392 58.0901 437.154 45.7417 432.513 33.7495C428.139 22.45 423.587 11.2692 414.595 2.04745" stroke="#1B72E0" stroke-linecap="round" stroke-linejoin="round"/>
<path d="M1086.98 1.31525C1089.57 13.1491 1089.53 24.9434 1085.33 36.4409C1082.77 43.4858 1079.73 50.4713 1076.01 57.1006C1067.06 73.0309 1058.49 89.0402 1055.16 106.791C1053.65 114.984 1048.29 119.891 1040.46 124.186C1023.77 133.308 1007.39 142.926 991.457 153.078C973.919 164.258 964.011 179.694 966.019 199.127C967.247 210.98 970.326 222.913 974.521 234.233C980.702 250.974 981.126 267.142 975.235 284.002C970.371 297.894 970.393 312.459 973.673 326.648C976.418 338.521 979.095 350.79 984.719 361.694C995.719 382.967 1013.97 399.531 1034.97 413.423C1047.29 421.556 1059.29 429.65 1069.27 440.276C1080.22 451.932 1093.74 461.015 1111.04 464.558C1121.26 466.655 1130.74 462.856 1140.58 461.866C1170.26 458.878 1198.44 450.646 1226.8 443.047C1236.42 440.474 1245.66 436.576 1254.81 432.796C1277.7 423.317 1300.53 413.72 1323.2 403.825C1332.04 399.966 1340.56 395.454 1348.84 390.744C1362.03 383.244 1369.61 372.717 1369.93 358.409C1370.15 347.842 1371.29 337.274 1371.33 326.707C1371.4 311.093 1365.11 297.815 1349.58 289.602C1329.96 279.233 1318.29 264.708 1313.63 244.721C1310.1 229.681 1300.89 216.739 1289.06 205.341C1281.34 197.92 1273.46 190.558 1266.61 182.544C1256.48 170.67 1255.57 158.163 1268.29 147.002C1275.45 140.709 1284.89 136.297 1293.75 131.705C1307.25 124.7 1321.55 118.862 1334.76 111.461C1346.38 104.951 1357.81 103.13 1371.47 105.149C1390.54 107.978 1409.13 106.276 1425.13 94.4822C1438.47 84.6272 1453.85 79.3634 1471.7 80.5111C1480.2 81.0652 1488.97 81.5599 1497.29 80.3924C1511.84 78.3541 1521.64 70.7353 1526.17 57.8724C1530.79 44.7127 1541.7 36.7179 1555.65 31.6717C1571.69 25.8537 1586.44 18.7296 1594.56 4.10551C1595.07 3.19521 1596.57 2.70048 1597.6 2.00786" stroke="#1B72E0" stroke-linecap="round" stroke-linejoin="round"/>
<path d="M1.11572 107.464C6.02481 113.717 14.3033 114.014 21.3546 116.329C26.8661 118.15 32.6901 119.238 38.4248 120.544C57.7934 124.977 66.3173 137.761 70.2223 153.652C76.9388 181.119 68.6603 205.677 51.8578 228.89C45.0967 238.25 38.3579 248.54 35.8364 259.187C30.9496 279.668 35.8364 301.357 57.838 316.338C63.6843 320.315 70.0884 323.956 74.7967 328.844C85.0835 339.57 83.0082 349.346 74.0826 358.963C65.224 368.502 54.9149 376.991 46.3686 386.727C36.0595 398.462 26.2636 410.553 19.6587 424.485C12.4066 439.802 14.281 454.643 32.9579 461.095C40.2992 463.628 47.8859 465.963 54.6471 469.465C67.1206 475.897 79.7058 482.407 91.1082 490.185C105.769 500.178 109.428 515.198 110.655 530.673C111.392 539.855 111.637 549.057 112.284 558.239C113.11 570.014 107.844 579.849 100.681 589.308C95.638 595.977 90.4165 602.725 86.8239 610.027C81.7363 620.377 83.3206 631.182 87.4264 641.65C96.2628 664.17 114.761 675.687 141.047 677.369C152.896 678.121 164.878 677.231 176.794 677.587C187.438 677.904 198.082 678.616 208.659 679.665C215.33 680.338 219.481 684.672 223.542 689.144C226.22 692.092 225.327 694.566 224.234 697.515C218.722 712.653 212.965 727.752 207.989 743.03C204.285 754.369 202.79 766.341 198.216 777.364C194.088 787.298 188.397 797.172 181.19 805.563C167.132 821.889 143.234 823.531 121.701 811.797C113.288 807.205 106.036 800.932 98.2934 795.391C88.7653 788.564 77.9653 784.587 65.6479 785.121C45.0967 786.031 25.0587 784.211 5.80167 777.423C4.1058 776.829 2.67771 775.622 1.11572 774.712" stroke="#1B72E0" stroke-linecap="round" stroke-linejoin="round"/>
<path d="M1818.42 439.05C1806.5 434.914 1794.87 429.768 1782.6 426.859C1758.06 421.022 1733.96 423.871 1710.35 432.084C1683.3 441.484 1657.31 452.387 1633.28 467.11C1623.66 473.008 1611.77 475.897 1601.68 481.279C1590.57 487.216 1580.08 494.142 1569.77 501.187C1558.84 508.648 1548.19 516.464 1537.91 524.618C1528.22 532.296 1517.89 539.756 1510.12 548.859C1497.18 564.057 1481.14 573.734 1460.07 576.9C1441.44 579.69 1427.47 588.734 1417.43 602.488C1410.05 612.58 1402.3 622.257 1392.71 630.905C1388.45 634.744 1385.75 640.562 1384.12 645.905C1378.87 663.101 1369.28 670.344 1348.95 670.621C1332.88 670.839 1316.77 671.334 1300.77 670.423C1290.06 669.81 1279.44 667.277 1268.91 665.08C1251.33 661.4 1234.52 664.21 1218.46 670.146C1207.39 674.243 1197.15 680.12 1186.5 685.107C1174.1 690.905 1161.96 697.257 1149.13 702.185C1134.74 707.706 1123.8 716.156 1115.79 727.871C1107.96 739.329 1098.7 750.253 1092.76 762.443C1078.06 792.68 1052.64 811.876 1018.59 822.918C1001.36 828.499 989.985 839.343 982.175 853.354C973.651 868.67 961.066 878.842 943.549 886.955C920.343 897.701 907.601 916.956 906.798 940.861C905.995 964.469 911.506 986.871 926.189 1007C928.264 1009.83 931.299 1012.1 933.887 1014.61" stroke="#1B72E0" stroke-linecap="round" stroke-linejoin="round"/>
<path d="M1818.42 1014.63C1802.08 991.877 1782.2 971.613 1762.45 951.211C1752.63 941.059 1739.69 936.131 1725.12 935.518C1702.74 934.568 1680.49 936.962 1658.27 939.317C1643.94 940.841 1630.02 942.602 1616.21 946.817C1600.36 951.646 1590.48 961.916 1580.57 972.603C1573.21 980.558 1567.03 989.621 1558.57 996.488C1545.11 1007.41 1528.71 1006.96 1512.16 1002.23C1492.74 996.666 1473.2 991.442 1453.89 985.604C1436.89 980.459 1430.42 965.637 1439.03 951.864C1445.37 941.712 1452.29 931.619 1456.68 920.795C1463.67 903.578 1461.17 885.887 1453.63 869.264C1447.73 856.282 1433.81 853.769 1419.66 852.621C1396.39 850.741 1374.39 857.034 1352.05 861.012C1335.36 863.98 1318.92 868.017 1302.25 871.144C1296.98 872.133 1291.36 871.441 1285.96 872.015C1277.37 872.925 1268.46 873.202 1260.39 875.596C1239.25 881.87 1235.19 895.801 1238.61 912.602C1239.54 917.252 1241.04 921.824 1242.47 926.395C1246.69 939.852 1238.92 950.716 1232.2 961.481C1223.1 976.105 1208.17 981.804 1189.58 982.398C1170.64 983.012 1151.72 984.773 1132.84 986.455C1123.18 987.306 1115.48 992.075 1108.72 998.071C1101.84 1004.19 1095.28 1010.74 1085.4 1013.23C1083.35 1013.74 1081.27 1014.54 1079.17 1014.56C1064.92 1014.67 1050.68 1014.61 1036.42 1014.61" stroke="#1B72E0" stroke-linecap="round" stroke-linejoin="round"/>
<path d="M284.816 1.31525C285.397 11.0515 280.287 18.7494 273.102 25.3985C263.216 34.5411 252.327 42.8921 242.955 52.4106C215.754 80.0362 217.562 117.358 251.345 140.591C259.624 146.29 267.724 152.227 275.355 158.599C278.926 161.587 281.603 165.624 283.946 169.542C291.131 181.534 289.391 186.976 275.422 192.141C256.254 199.226 237.6 199.879 220.998 186.125C216.29 182.227 210.979 178.744 205.468 175.796C194.935 170.175 184.113 173.401 178.312 183.276C172.131 193.784 173.246 204.826 176.169 215.651C178.401 223.883 182.127 231.799 185.34 239.813C190.74 253.21 193.262 267.063 194.757 281.172C195.426 287.426 196.81 293.679 198.617 299.774C202.277 312.083 211.671 315.843 224.97 316.1C233.494 316.258 242.04 313.923 250.609 312.934C262.435 311.568 271.74 305.691 279.997 298.963C292.269 288.949 306.104 281.232 320.63 274.385C336.161 267.063 342.498 255.249 343.904 240.526C344.707 232.036 348.88 225.803 358.654 223.27C363.362 222.043 368.115 220.796 372.622 219.114C386.725 213.81 396.186 204.411 400.492 191.548C405 178.15 408.548 164.496 412.252 150.901C415.487 139.027 413.792 127.372 410.043 115.736C405.937 102.952 404.174 89.8318 404.442 76.4741C404.799 58.4463 405.58 40.3393 399.823 22.727C397.458 15.5436 394.691 8.47889 392.08 1.35482" stroke="#1B72E0" stroke-linecap="round" stroke-linejoin="round"/>
<path d="M1818.42 574.842C1817.9 576.445 1817.92 578.543 1816.76 579.592C1806.01 589.387 1799.54 601.221 1795.05 614.124C1790.48 627.323 1784.57 639.711 1773.5 650.12C1762.41 660.549 1748.15 664.17 1733.64 667.831C1725.75 669.83 1717.67 671.512 1709.55 672.64C1694.86 674.658 1686.23 684.157 1676.99 692.765C1667.89 701.255 1659.52 710.358 1650.44 718.867C1638.65 729.909 1629.37 726.525 1618.66 719.56C1616.32 718.036 1614.64 715.74 1612.37 714.118C1600.39 705.549 1589.9 705.826 1577.4 714.771C1568.65 721.024 1559.8 727.179 1550.98 733.392C1543.69 738.537 1535.3 741.169 1526.12 742.416C1516.75 743.702 1510.79 748.669 1511.37 754.052C1511.78 757.97 1512.31 761.869 1512.94 765.767C1513.9 771.743 1514.79 777.759 1516.06 783.676C1519.47 799.409 1528.82 809.976 1547.88 811.955C1562.65 813.498 1577.45 816.645 1592.17 816.368C1608.28 816.051 1624.31 812.549 1640.37 810.589C1660.54 808.116 1680.67 807.601 1701.02 809.738C1721.01 811.856 1740.05 807.898 1756.9 798.063C1775.86 787.001 1791.55 772.634 1804.22 756.011C1812.17 745.602 1812.95 733.432 1812.5 720.945C1812.26 714.137 1810.81 706.42 1816.74 700.226C1817.72 699.197 1817.84 697.515 1818.37 696.129" stroke="#1B72E0" stroke-linecap="round" stroke-linejoin="round"/>
<path d="M629.167 2.00788C632.023 6.38127 634.946 10.6953 637.691 15.1082C646.281 28.8814 655.408 42.4172 663.195 56.5268C670.961 70.5968 678.28 84.746 688.053 97.9255C696.689 109.561 694.167 119.951 684.974 130.122C679.284 136.415 672.076 141.64 665.717 147.477C655.542 156.838 645.545 166.336 635.37 175.697C629.524 181.079 622.785 185.809 617.719 191.706C612.9 197.286 608.883 203.698 606.072 210.248C602.234 219.173 604.733 224.002 614.462 228.019C624.726 232.254 635.504 235.479 647.04 232.175C650.075 231.304 653.4 230.018 655.519 228.039C669.845 214.444 685.532 202.926 705.146 195.288C712.42 192.458 718.646 185.413 722.952 179.021C732.057 165.525 744.664 156.481 760.507 150.149C770.615 146.092 779.92 140.611 786.079 132.24C792.483 123.552 795.317 113.974 793.264 103.348C789.828 85.4782 786.771 67.5295 783.937 49.5808C782.821 42.5359 782.754 35.3525 782.308 28.2284C781.728 19.264 781.259 10.2995 780.746 1.33505" stroke="#1B72E0" stroke-linecap="round" stroke-linejoin="round"/>
<path d="M437.958 1.31525C442.889 8.43931 448.601 15.227 452.529 22.7666C458.487 34.2047 459.959 46.8499 460.205 59.2379C460.495 72.8725 462.414 85.9135 468.238 98.539C476.985 117.497 476.003 136.514 469.175 155.789C466.497 163.368 465.181 171.343 463.663 179.199C462.258 186.383 469.264 194.476 477.587 194.971C497.001 196.119 516.436 197.207 535.872 197.702C551.715 198.118 565.282 192.775 577.108 183.375C592.438 171.204 608.794 160.004 623.477 147.299C635.303 137.068 647.107 126.204 650.856 110.947C653.333 100.815 649.963 91.0785 647.732 81.3225C640.904 51.441 622.584 26.5661 603.416 2.06723C603.037 1.59229 601.921 1.5725 601.14 1.35482" stroke="#1B72E0" stroke-linecap="round" stroke-linejoin="round"/>
<path d="M1491.96 1014.63C1475.9 1012.79 1459.81 1011.07 1443.79 1009.07C1432.05 1007.61 1424.91 999.714 1418.41 992.372C1411.16 984.159 1405.09 975.116 1402.28 964.37C1399.87 955.188 1402.62 948.064 1408.91 941.633C1414.67 935.755 1421.25 930.531 1427.47 925.01C1437.74 915.927 1439.05 904.924 1435.15 893.328C1430.98 880.92 1420.78 874.172 1406.48 873.4C1366.11 871.223 1331.12 886.124 1313.4 916.817C1299.9 940.208 1283.28 961.343 1262.73 980.182C1258.51 984.041 1254.9 988.414 1251.01 992.55C1240.19 1004.13 1227.16 1008.42 1209.76 1005.99C1192.15 1003.51 1174.05 1003.12 1156.18 1003.16C1145.67 1003.16 1136.14 1007.87 1127.37 1013.17C1125.9 1014.06 1123.8 1014.16 1121.97 1014.61" stroke="#1B72E0" stroke-linecap="round" stroke-linejoin="round"/>
<path d="M1790.43 2.00787C1783.69 10.5172 1775.93 18.512 1770.46 27.6149C1761.4 42.714 1750.4 55.1613 1730.59 59.1785C1723.89 60.5242 1717.07 61.3157 1710.39 62.701C1695.51 65.7881 1680.92 69.3105 1668.35 77.7605C1654.61 87.0217 1640.19 95.4717 1626.51 104.792C1613.68 113.539 1609.71 126.699 1606.25 139.878C1599.78 164.496 1610.11 184.8 1627.23 203.283C1638.41 215.354 1649.88 227.781 1666.26 233.956C1679.93 239.121 1694.91 242.841 1709.66 244.286C1736.3 246.917 1759.31 254.813 1778.12 272.129C1784.28 277.808 1792.42 280.856 1801.28 282.736C1807.91 284.141 1812.84 281.172 1818.39 279.688C1818.68 279.609 1818.44 277.966 1818.44 277.036" stroke="#1B72E0" stroke-linecap="round" stroke-linejoin="round"/>
<path d="M475.267 1.31525C482.43 3.72951 484.862 9.52771 485.107 15.1082C485.553 24.9632 485.174 34.9567 483.635 44.7127C481.202 60.1877 481.381 75.2868 486.892 90.2473C492.337 105.01 495.818 120.01 494.858 135.742C494.435 142.589 495.015 149.634 496.42 156.382C498.384 165.782 513.446 174.984 525.005 175.835C540.312 176.943 552.942 172.174 564.701 164.041C589.649 146.805 606.763 124.581 617.385 98.4598C623.588 83.1826 621.468 67.9253 614.484 52.9845C604.934 32.5424 589.135 17.7204 566.219 8.89446C559.725 6.38125 553.254 3.84825 546.783 1.31525" stroke="#1B72E0" stroke-linecap="round" stroke-linejoin="round"/>
<path d="M1.11572 750.629C27.0669 751.321 52.0364 746.235 76.4256 739.369C90.6173 735.371 104.34 729.632 117.573 723.518C125.137 720.015 130.894 711.842 120.027 704.48C114.716 700.879 109.361 697.277 103.693 694.17C80.3306 681.307 68.4818 660.766 58.1058 639.572C54 631.201 50.095 621.624 50.6306 612.817C51.7463 594.394 52.6388 575.238 70.981 561.682C80.1744 554.895 84.9942 545.178 85.5297 534.888C86.1099 523.569 80.0182 514.268 69.5529 507.282C57.481 499.228 44.0033 496.022 29.0975 496.992C22.4033 497.427 16.9587 500.732 13.7678 505.363C8.81407 512.507 5.26613 520.422 1.11572 528.001" stroke="#0C40A5" stroke-linecap="round" stroke-linejoin="round"/>
<path d="M321.367 1.31527C326.477 6.00528 324.089 11.665 322.661 16.4143C319.693 26.3485 311.816 33.4132 301.909 38.4792C294.278 42.3776 286.423 45.9198 278.613 49.5412C268.103 54.4094 258.218 60.168 251.524 68.9147C238.805 85.5178 242.598 103.526 263.841 113.005C272.745 116.982 281.291 121.593 290.328 125.294C301.641 129.924 310.009 137.405 318.377 145.261C328.463 154.72 339.352 163.665 354.035 167.365C365.035 170.136 372.823 164.338 375.233 154.364C378.29 141.778 372.421 130.419 371.194 118.467C370.168 108.394 368.717 98.5192 369.744 88.0904C370.993 75.643 368.583 62.7406 366.24 50.2537C363.183 33.8089 358.676 17.6017 354.793 1.2757" stroke="#0C40A5" stroke-linecap="round" stroke-linejoin="round"/>
<path d="M841.373 1.31525C840.168 13.624 844.163 25.2798 846.572 37.1928C847.934 43.8618 847.108 50.9462 846.729 57.8328C846.282 65.887 844.832 73.9016 844.564 81.9557C844.185 93.8885 844.475 105.841 844.475 117.794C844.475 136.791 854.472 147.616 875.581 149.318C892.339 150.663 909.297 151.277 926.077 150.564C936.096 150.129 945.424 145.835 954.193 140.709C968.05 132.636 983.157 126.145 994.425 114.984C999.468 109.997 1003.48 104.199 1008.55 99.2514C1016.81 91.217 1025.08 83.0639 1034.23 75.8607C1054.14 60.1679 1067.35 41.3288 1071.3 17.8391C1072.21 12.4367 1071.43 6.8364 1071.43 1.31525" stroke="#1B72E0" stroke-linecap="round" stroke-linejoin="round"/>
<path d="M397.525 1014.63C389.514 1011.96 384.426 1006.2 380.611 1000.07C373.515 988.652 367.668 976.64 360.907 965.043C358.073 960.195 354.905 955.287 350.754 951.329C343.324 944.205 334.197 945.868 325.249 949.153C308.135 955.445 296.464 967.418 284.772 979.43C278.903 985.446 272.945 991.561 266.05 996.587C253.666 1005.61 238.805 1006.9 223.43 1004.98C219.012 1004.42 214.616 1003.65 210.221 1002.92C180.878 998.091 160.616 983.684 149.415 958.869C145.331 949.825 138.146 944.957 128.06 953.526C114.739 964.845 100.971 976.343 97.2669 993.935C95.9057 1000.43 98.7173 1005.12 102.288 1009.75C104.631 1012.77 107.643 1016.16 113.021 1014.65" stroke="#1B72E0" stroke-linecap="round" stroke-linejoin="round"/>
<path d="M1.11572 409.406C5.26613 397.908 8.18927 385.936 13.8347 375.052C22.2248 358.844 22.2471 343.053 15.8876 326.687C9.28266 309.688 4.61903 292.136 3.90498 274.286C3.50332 264.114 6.76117 253.745 11.7149 243.87C19.5471 228.197 31.7529 215.413 42.9769 201.858C54.0669 188.461 57.8157 174.133 47.8413 158.441C39.1612 144.766 25.2149 139.977 8.88101 138.533C6.31489 138.315 3.70415 138.493 1.11572 138.493" stroke="#1B72E0" stroke-linecap="round" stroke-linejoin="round"/>
<path d="M907.445 1013.94C897.426 1001.12 893.454 985.901 886.291 971.949C882.565 964.687 877.589 957.8 872.323 951.29C868.418 946.461 861.969 945.59 855.386 944.858C835.148 942.622 814.105 945.353 794.714 937.437C786.28 933.994 777.8 930.551 769.053 927.84C755.219 923.565 741.183 921.012 726.322 924.198C704.767 928.829 699.813 940.643 698.653 954.634C697.001 974.542 697.336 994.588 696.8 1014.59" stroke="#1B72E0" stroke-linecap="round" stroke-linejoin="round"/>
<path d="M905.102 1.31525C896.288 20.8075 892.405 41.2892 889.571 61.9885C888.411 70.4781 887.072 78.9676 886.604 87.4967C886.381 91.593 887.474 95.907 888.857 99.8648C892.182 109.482 901.353 113.895 911.997 110.076C925.519 105.228 939.109 100.102 951.515 93.4136C961.78 87.8727 970.839 80.3528 979.542 72.8923C987.932 65.6891 997.014 60.4648 1008.39 57.7141C1023.63 54.0531 1037.34 47.681 1045.66 35.0556C1052.46 24.7257 1054.63 13.2085 1054.29 1.31525" stroke="#1B72E0" stroke-linecap="round" stroke-linejoin="round"/>
<path d="M205.535 1.31525C195.426 25.8933 185.898 50.689 175.031 75.0098C166.463 94.1854 151.445 105.426 120.808 106.672C111.124 107.068 101.395 107.682 91.9562 103.506C82.9859 99.5284 78.7686 92.721 74.9975 85.399C68.5487 72.833 62.0107 60.3856 50.0727 50.9462C36.9967 40.5966 17.9851 40.181 5.80165 49.6204C3.88264 51.1046 2.63305 53.2418 1.09338 55.0822" stroke="#1B72E0" stroke-linecap="round" stroke-linejoin="round"/>
<path d="M1628.77 2.00787C1626.96 5.68864 1624.42 9.2111 1623.46 13.07C1619.95 27.0608 1614.09 40.2008 1607.12 53.0835C1603.82 59.2181 1602.06 65.9859 1599.16 72.2987C1596.35 78.4135 1603.17 83.8357 1609.33 81.3027C1617.86 77.7802 1626.96 75.1681 1634.86 70.7749C1649.28 62.7801 1663.07 53.875 1679.31 48.9476C1689.55 45.8407 1699.95 43.1494 1710.39 40.6559C1730.12 35.9461 1743.15 24.4883 1752.41 8.91426C1753.88 6.46042 1755.98 4.30341 1757.81 2.00787" stroke="#0C40A5" stroke-linecap="round" stroke-linejoin="round"/>
<path d="M1801.32 1014.63C1799 1012.34 1796.35 1010.24 1794.38 1007.71C1778.9 987.84 1758.41 972.642 1735.9 959.66C1724.7 953.189 1711.09 951.408 1697.92 950.696C1678.69 949.647 1659.41 950.518 1640.42 953.981C1618.42 957.998 1603.44 969.614 1592.78 986.95C1587.04 996.29 1579.05 1004.56 1571.93 1013.21C1571.24 1014.06 1569.41 1014.18 1568.12 1014.63" stroke="#1B72E0" stroke-linecap="round" stroke-linejoin="round"/>
<path d="M1235.46 1.31526C1237.54 5.45118 1240.97 9.48815 1241.37 13.7428C1242.13 21.698 1243.25 30.425 1240.5 37.7272C1231.49 61.8105 1210.4 74.139 1183.31 79.0072C1179.23 79.7394 1174.41 78.2354 1170.17 77.0678C1154.48 72.734 1139.31 66.9556 1122.73 65.3329C1118.16 64.8976 1114.72 62.2062 1115.03 57.8329C1116.39 38.3802 1111.28 19.818 1105.62 1.29547" stroke="#1B72E0" stroke-linecap="round" stroke-linejoin="round"/>
<path d="M881.003 1013.94C877.366 1008.42 873.327 1003.1 870.203 997.359C862.103 982.556 847.576 977.114 830.484 975.373C812.834 973.572 796.924 967.675 781.482 960.234C773.137 956.217 764.747 951.982 755.799 949.311C735.627 943.255 721.391 952.992 721.904 971.198C722.261 984.318 724.805 997.398 726.322 1010.5C726.478 1011.86 726.322 1013.25 726.322 1014.63" stroke="#1B72E0" stroke-linecap="round" stroke-linejoin="round"/>
<path d="M167.445 1.31525C168.739 4.06593 170.903 6.75724 171.193 9.60687C173.246 29.3366 165.347 46.6322 153.364 62.6218C146.849 71.3092 138.592 77.9583 126.342 80.9069C117.64 83.0045 110.945 80.6694 104.631 76.9689C100.012 74.2776 96.1512 70.1614 92.938 66.0651C82.8074 53.1428 72.6322 40.2008 63.528 26.7244C59.3553 20.5304 57.4363 13.1095 54.8925 6.12399C54.4016 4.79812 55.7851 2.95774 56.2983 1.33504" stroke="#1B72E0" stroke-linecap="round" stroke-linejoin="round"/>
<path d="M1.1157 576.227C2.40991 581.966 4.95371 587.745 4.75289 593.464C4.26198 608.187 10.5322 620.377 19.6587 632.132C29.9678 645.41 39.7636 659.005 49.1132 672.838C52.1033 677.27 53.5983 682.752 54.6025 687.917C56.5215 697.91 51.7909 706.044 42.9992 711.921C32.9578 718.649 21.7339 723.419 8.88098 724.467C6.27024 724.685 3.70413 725.358 1.09338 725.813" stroke="#1B72E0" stroke-linecap="round" stroke-linejoin="round"/>
<path d="M1778 1013.94C1754.11 989.661 1723.45 975.136 1688.5 968.942C1672.91 966.171 1655.79 966.705 1640.46 973.335C1628.01 978.717 1620.51 987.959 1616.34 999.476C1614.51 1004.52 1612.7 1009.59 1610.9 1014.63" stroke="#1B72E0" stroke-linecap="round" stroke-linejoin="round"/>
<path d="M1523.04 1.31525C1516.57 6.36146 1509.79 11.1702 1503.68 16.5528C1495.35 23.8748 1488.3 32.483 1479.26 38.9541C1472.79 43.6045 1464.27 46.5531 1456.12 48.6903C1442.29 52.2919 1428.1 54.8645 1413.44 54.4291C1403.6 54.1323 1398.13 49.3433 1397.86 40.6163C1397.48 27.1994 1400.61 14.2375 1404.11 1.31525" stroke="#1B72E0" stroke-linecap="round" stroke-linejoin="round"/>
<path d="M1818.42 64.7393C1817.39 66.1245 1816.68 67.9253 1815.25 68.796C1810.74 71.5467 1806.05 74.0401 1801.3 76.4346C1790.7 81.7974 1787.62 90.9598 1786.71 100.597C1785.41 114.133 1787.13 127.55 1791.97 140.571C1799.29 160.301 1806.59 180.07 1813.69 199.859C1815.31 204.43 1820.4 208.091 1818.42 213.632" stroke="#1B72E0" stroke-linecap="round" stroke-linejoin="round"/>
<path d="M655.586 1.31525C660.763 8.20184 665.896 15.128 671.139 21.9948C678.347 31.4342 685.153 41.1704 693.074 50.1349C698.095 55.8341 704.075 61.474 710.948 65.1746C722.305 71.2894 730.606 69.0532 737.903 59.1785C745.267 49.2246 748.569 37.8657 749.506 26.1307C750.153 17.8985 749.64 9.58708 749.64 1.31525" stroke="#0C40A5" stroke-linecap="round" stroke-linejoin="round"/>
<path d="M1401.79 1014.63C1400.76 1014.18 1399.2 1013.96 1398.76 1013.23C1390.99 1000.01 1378.23 990.611 1366.85 980.142C1362.52 976.165 1358.46 971.95 1354.4 967.754C1343.6 956.534 1335.21 956.019 1323.33 966.428C1315.52 973.295 1308.27 980.637 1300.73 987.741C1291.69 996.27 1282.63 1004.78 1273.48 1013.21C1272.59 1014.02 1270.94 1014.18 1269.65 1014.63" stroke="#0C40A5" stroke-linecap="round" stroke-linejoin="round"/>
<path d="M1266.54 1.31525C1274.31 5.9261 1276.45 13.7032 1279.62 20.669C1285.24 32.9976 1293.99 41.6652 1309.3 44.0399C1318.8 45.524 1327.69 43.2879 1335.67 39.1322C1352.9 30.1875 1369.46 20.4315 1377.02 2.72027C1377.33 2.00786 1379.01 1.7704 1380.03 1.31525" stroke="#1B72E0" stroke-linecap="round" stroke-linejoin="round"/>
<path d="M1.11572 928.473C11.581 930.669 21.1091 934.429 29.9455 940.109C55.6736 956.633 57.8826 984.456 39.6744 1005.49C35.3008 1010.54 28.4504 1015.15 19.7479 1014.65" stroke="#1B72E0" stroke-linecap="round" stroke-linejoin="round"/>
<path d="M1128.18 1.31525C1133.87 7.7467 1139.29 14.4156 1145.36 20.5502C1150.91 26.1505 1156.47 32.1268 1163.3 36.2628C1175.57 43.7232 1187.89 40.7153 1198.15 28.9012C1205.25 20.7283 1208.44 11.5264 1208.22 1.31525" stroke="#0C40A5" stroke-linecap="round" stroke-linejoin="round"/>
<path d="M828.141 1014.63C826.847 1014.18 825.352 1013.94 824.281 1013.23C812.276 1005.27 799.289 999.14 784.606 996.033C764.925 991.877 760.351 996.152 754.259 1011.19C753.768 1012.44 752.742 1013.51 751.961 1014.65" stroke="#1B72E0" stroke-linecap="round" stroke-linejoin="round"/>
<path d="M967.291 1.31525C967.916 7.64775 972.446 11.9222 977.444 15.7415C984.763 21.3418 993.912 23.9935 1003.08 25.2402C1019.95 27.516 1031.87 19.6003 1032.58 1.31525" stroke="#0C40A5" stroke-linecap="round" stroke-linejoin="round"/>
<path d="M1818.42 904.35C1816.61 911.474 1815.29 918.737 1812.86 925.683C1809.27 935.894 1814.27 945.096 1816.12 954.654C1816.7 957.662 1817.63 960.63 1818.42 963.618" stroke="#1B72E0" stroke-linecap="round" stroke-linejoin="round"/>
<path d="M1748.46 1014.63C1746.12 1013.94 1743.64 1013.53 1741.5 1012.52C1727.51 1006.07 1712.78 1002.62 1697.23 1005.93C1691.63 1007.11 1686.81 1011.19 1681.61 1013.94" stroke="#1B72E0" stroke-linecap="round" stroke-linejoin="round"/>
<path d="M1666.84 1.31525C1667.17 10.9921 1670.99 14.0198 1681.61 14.4948C1697.12 15.1874 1710.21 10.3589 1722.04 2.00786" stroke="#1B72E0" stroke-linecap="round" stroke-linejoin="round"/>
<path d="M1.11572 647.903C5.77936 654.335 10.9562 660.529 14.9951 667.257C24.0546 682.257 21.4661 689.342 5.02068 697.574C3.79341 698.187 2.92316 699.375 1.89671 700.285" stroke="#1B72E0" stroke-linecap="round" stroke-linejoin="round"/>
<path d="M1818.42 111.6C1817.63 114.133 1816.65 116.626 1816.12 119.179C1813.6 131.448 1813.48 143.618 1817.52 155.729C1818.53 158.757 1818.15 162.141 1818.42 165.347" stroke="#1B72E0" stroke-linecap="round" stroke-linejoin="round"/>
<path d="M1476.41 1.31526C1471.48 5.90632 1466.75 10.6755 1461.59 15.0489C1454.92 20.7086 1437.58 23.3801 1431.51 14.2969C1429.01 10.5568 1428.72 5.66886 1427.43 1.29547" stroke="#1B72E0" stroke-linecap="round" stroke-linejoin="round"/>
<path d="M825.039 491.431C817.029 493.351 814.686 498.278 814.819 505.224C814.976 514.07 815.489 522.856 822.049 529.961C826.824 535.126 832.604 539.875 841.351 536.906C850.522 533.8 854.672 527.289 855.297 518.997C856.167 507.361 849.808 498.634 837.446 494.241C833.742 492.915 829.703 492.342 825.82 491.431" stroke="#0C40A5" stroke-linecap="round" stroke-linejoin="round"/>
<path d="M646.259 421.121C643.939 421.576 641.618 422.308 639.253 422.447C625.842 423.258 615.801 432.559 616.001 444.551C616.091 450.23 614.64 455.969 619.683 461.213C626.02 467.803 637.021 468.575 644.586 464.399C657.215 457.453 662.392 446.114 664.021 433.528C664.78 427.73 660.384 424.445 654.761 422.565C652.329 421.754 649.606 421.596 647.018 421.121" stroke="#0C40A5" stroke-linecap="round" stroke-linejoin="round"/>
<path d="M1320.95 496.952C1313.69 497.863 1306.46 499.327 1299.17 499.584C1287.01 500.02 1274.78 499.09 1262.66 499.842C1242.65 501.069 1222.59 503.146 1204.4 511.497C1190.77 517.751 1181.55 527.843 1175.55 540.35C1172.96 545.732 1170.19 551.095 1166.98 556.181C1161.78 564.374 1152.27 566.61 1142.93 568.529C1136.3 569.895 1129.47 570.39 1122.75 571.399C1114.99 572.566 1111.82 576.148 1113.52 583.074C1117.09 597.619 1120.21 612.323 1125.39 626.432C1129.87 638.642 1141.12 643.312 1160.87 641.136C1180.41 638.979 1196.57 631.32 1211.43 620.397C1222.34 612.362 1235.84 609.137 1249.47 607.375C1267.44 605.08 1282.48 598.193 1295.26 587.171C1303.61 579.968 1313.52 575.297 1324.05 571.32C1328.31 569.717 1332.59 567.995 1336.45 565.779C1349.84 558.14 1351.81 551.174 1345.09 538.252C1341.45 531.247 1338.08 524.103 1335.07 516.86C1334.02 514.367 1334.4 511.379 1334.18 508.628C1333.51 500.93 1330.7 498.278 1321.75 496.913" stroke="#1B72E0" stroke-linecap="round" stroke-linejoin="round"/>
<path d="M1733.69 497.645C1720.93 499.723 1713.14 508.668 1703.45 514.96C1699.66 517.434 1696.34 520.62 1693.35 523.885C1684.98 532.909 1681.23 541.122 1689.73 552.619C1695.87 560.93 1704.15 568.411 1712.92 574.664C1727.22 584.836 1736.55 579.394 1745.23 569.934C1754.66 559.664 1759.82 547.217 1761.47 534.176C1762.85 523.292 1759.19 513.12 1750.87 504.532C1746.5 500.02 1741.23 497.566 1734.52 497.665" stroke="#0C40A5" stroke-linecap="round" stroke-linejoin="round"/>
<path d="M495.461 502.454C486.848 505.046 478.391 507.302 471.987 514.05C461.923 524.677 465.181 535.6 470.849 545.772C479.752 561.801 489.682 577.454 500.303 592.672C511.639 608.919 529.289 618.477 549.104 625.186C560.417 629.005 568.673 624.691 573.382 616.261C578.514 607.098 576.929 598.47 574.096 589.268C568.829 572.171 557.115 557.942 548.278 542.447C544.262 535.383 539.107 528.813 535.225 521.708C527.236 507.065 514.361 500.752 496.264 502.454" stroke="#0C40A5" stroke-linecap="round" stroke-linejoin="round"/>
<path d="M1233.9 521.768C1225.38 524.301 1216.65 525.924 1209.64 531.959C1201.03 539.38 1198.4 548.483 1197.46 558.298C1196.9 564.235 1197.26 570.231 1197.37 576.208C1197.57 585.845 1203.04 590.733 1213.66 590.654C1220.91 590.594 1228.25 590.792 1235.42 589.882C1256.77 587.171 1268.29 574.783 1275.23 557.645C1278.37 549.868 1279.8 542.428 1275.78 534.868C1270.92 525.706 1262.06 521.906 1250.97 521.748C1245.53 521.669 1240.08 521.748 1234.66 521.748" stroke="#0C40A5" stroke-linecap="round" stroke-linejoin="round"/>
<path d="M851.459 400.441C837.937 402.638 830.283 409.762 828.119 421.813C826.11 433.034 832.024 441.939 840.012 449.221C850.857 459.116 862.973 467.942 874.822 476.926C886.805 486.009 889.549 497.229 888.322 510.765C887.229 523.054 887.206 535.878 889.995 547.89C893.543 563.226 905.392 568.826 924.515 572.824C942.367 576.544 958.633 571.082 974.142 564.948C991.011 558.279 1006.5 558.714 1021.65 567.342C1040.41 578.028 1058.69 573.694 1076.83 566.471C1083.28 563.919 1085.44 558.793 1082.14 553.569C1077.68 546.544 1073.04 539.123 1066.57 533.681C1050.54 520.244 1039.19 504.156 1028.61 487.335C1021.83 476.53 1012.05 467.942 999.892 461.847C981.014 452.368 964.033 440.85 948.547 427.394C932.437 413.383 912.421 405.962 890.308 403.311C877.7 401.807 864.937 401.371 852.24 400.441" stroke="#1B72E0" stroke-linecap="round" stroke-linejoin="round"/>
<path d="M1659.85 310.836C1651.55 313.211 1643.09 314.576 1637.92 322.472C1626.85 339.372 1640.19 362.644 1662.17 363.139C1681.45 363.554 1698.83 357.301 1714.92 348.614C1723.27 344.102 1723.36 337.235 1716.57 330.863C1701.4 316.575 1682.14 311.232 1660.61 310.856" stroke="#0C40A5" stroke-linecap="round" stroke-linejoin="round"/>
<path d="M1174.05 601.043C1173.27 601.498 1172.27 601.815 1171.78 602.448C1170.59 603.972 1169.66 605.634 1168.63 607.237C1170.19 607.93 1172.13 609.493 1173.21 609.117C1175.3 608.385 1177.36 606.762 1178.47 605.04C1178.83 604.506 1176.13 602.408 1174.83 601.043" stroke="#0C40A5" stroke-linecap="round" stroke-linejoin="round"/>
<path d="M277.832 636.188C270.759 637.771 265.738 641.789 262.346 647.25C255.429 658.411 248.578 669.632 242.197 681.05C239.608 685.661 241.549 690.232 246.012 693.359C256.701 700.879 269.263 704.797 282.518 706.36C296.531 708.023 312.798 698.009 313.111 686.492C313.311 678.972 309.92 670.938 306.305 663.873C302.645 656.71 296.777 650.417 291.801 643.768C288.654 639.552 284.906 636.109 278.591 636.188" stroke="#1B72E0" stroke-linecap="round" stroke-linejoin="round"/>
<path d="M1652.09 291.522C1645.86 292.67 1639.32 293.085 1633.5 295.104C1607.86 303.969 1606.37 316.991 1608.04 336.324C1608.91 346.298 1612.39 356.114 1614.8 365.988C1616.81 374.26 1623.39 378.495 1631.87 381.186C1644.79 385.283 1657.87 384.867 1670.72 381.74C1694.93 375.883 1718.96 369.491 1743.02 363.139C1746.05 362.327 1749.18 360.883 1751.52 359.003C1761.29 351.146 1763.34 347.644 1755.94 337.908C1738.42 314.913 1714.95 298.151 1683.17 293.085C1673.29 291.502 1663 291.997 1652.89 291.542" stroke="#1B72E0" stroke-linecap="round" stroke-linejoin="round"/>
<path d="M1167.05 259.82C1153.06 264.866 1139.33 270.684 1124.98 274.761C1112.96 278.184 1100.17 279.47 1087.76 281.905C1073.51 284.695 1065.43 293.066 1062.15 305.315C1060.81 310.302 1065.87 318.237 1073.04 321.067C1087.9 326.905 1102.83 332.723 1118.13 337.551C1131.99 341.925 1143.62 336.008 1149.91 322.532C1157.23 306.878 1167 293.105 1184.9 285.308C1185.21 285.17 1185.39 284.833 1185.68 284.635C1190.74 281.37 1197.24 278.738 1194.94 271.555C1192.93 265.242 1184.3 259.998 1176.33 259.84C1173.47 259.78 1170.64 259.84 1167.78 259.84" stroke="#0C40A5" stroke-linecap="round" stroke-linejoin="round"/>
<path d="M1735.25 708.577C1723.13 710.16 1713.85 716.552 1705.89 723.894C1694.3 734.56 1683.93 746.255 1673.08 757.535C1671.63 759.039 1670.14 760.602 1669.22 762.363C1664.58 771.328 1665.88 775.246 1677.75 776.651C1696.18 778.848 1712.91 774.257 1725.75 762.185C1734.69 753.755 1742.61 744.316 1749.87 734.659C1759.08 722.37 1752.63 710.951 1736.03 708.557" stroke="#0C40A5" stroke-linecap="round" stroke-linejoin="round"/>
<path d="M650.923 727.178C637.043 730.266 628.341 738.953 621.446 749.263C610.244 766.044 604.554 784.408 601.877 803.683C599.31 822.126 590.92 831.071 568.517 833.248C550.42 835.009 532.257 836.236 514.115 837.423C494.301 838.71 478.078 831.902 464.333 819.574C459.691 815.418 454.715 811.519 449.561 807.858C442.13 802.614 433.562 800.339 423.967 800.121C413.323 799.883 402.657 799.23 392.102 798.063C379.272 796.638 370.145 788.267 359.568 782.786C348.501 777.047 337.321 773.544 324.446 773.96C314.873 774.276 305.256 774.435 295.706 773.94C276.694 772.931 264.042 780.668 256.054 795.391C250.341 805.959 244.383 816.427 239.006 827.133C232.133 840.827 219.994 847.813 204.017 851.414C193.106 853.868 182.707 858.083 172.108 861.566C153.186 867.819 150.151 883.552 162.982 896.553C177.441 911.217 188.107 927.662 198.015 944.858C201.964 951.725 207.543 958.651 214.304 963.341C232.535 975.947 243.178 975.076 261.32 964.726C273.615 957.701 284.259 948.401 295.706 940.148C307.978 931.303 320.63 923.13 336.897 920.795C355.485 918.123 379.74 925.406 387.506 945.63C390.652 953.823 394.445 961.837 398.372 969.753C404.844 982.814 416.425 991.739 431.04 996.448C454.291 1003.93 478.212 1009.55 503.248 1009.73C529.914 1009.9 553.455 1002.31 573.158 986.277C585.275 976.422 599.132 969.872 615.198 967.062C635.191 963.559 645.634 952.042 651.079 935.359C656.345 919.172 663.977 903.737 679.061 892.734C687.384 886.659 696.957 881.889 706.15 876.764C717.173 870.629 728.486 864.891 739.532 858.776C748.725 853.67 757.294 847.555 766.844 843.103C783.647 835.326 792.081 822.661 796.254 807.087C798.084 800.259 800.561 793.314 800.65 786.407C800.739 779.441 799.936 772.199 795.629 765.688C790.609 758.129 783.468 754.804 773.784 754.646C766.264 754.507 758.744 753.32 751.247 753.439C736.14 753.656 722.595 749.144 709.296 743.663C703.004 741.07 696.689 738.419 690.664 735.371C678.57 729.217 665.829 725.793 651.771 727.159" stroke="#1B72E0" stroke-linecap="round" stroke-linejoin="round"/>
<path d="M1423.55 742.357C1409.53 744.553 1399.02 751.519 1392.71 762.462C1389.27 768.399 1386.13 775.167 1390.79 782.39C1394.23 787.733 1399.13 790.682 1405.67 790.503C1425.69 789.949 1445.28 792.047 1464.83 795.767C1468.91 796.539 1475.94 794.006 1478.24 790.978C1480.71 787.713 1481.54 780.53 1479.15 777.759C1464.92 761.315 1448.58 746.849 1424.35 742.357" stroke="#0C40A5" stroke-linecap="round" stroke-linejoin="round"/>
<path d="M1580.57 750.629C1569.86 753.696 1559.86 757.733 1553.37 766.48C1546.56 775.642 1548.26 783.597 1558.84 789.87C1578.52 801.546 1606.77 798.716 1624.82 785.715C1629.59 782.291 1629.37 775.523 1623.99 771.387C1616.34 765.49 1608.49 759.573 1599.83 755.002C1594.54 752.231 1587.55 751.994 1581.35 750.609" stroke="#0C40A5" stroke-linecap="round" stroke-linejoin="round"/>
<path d="M1199.69 751.994C1170.01 758.247 1146.45 774.039 1124.56 791.552C1113.47 800.418 1104.72 811.698 1095.64 822.384C1082.45 837.859 1064.89 848.347 1046.6 858.182C1029.12 867.562 1020.51 884.581 1024.95 902.252C1027 910.445 1029.57 918.756 1033.56 926.336C1042.91 944.146 1056.35 948.46 1078.46 945.729C1095.55 943.612 1112.62 941.217 1129.78 939.713C1135.87 939.179 1142.26 940.643 1148.41 941.633C1167.49 944.7 1189.14 936.349 1191.15 913.314C1192.08 902.747 1192.04 892.101 1193.67 881.632C1196.3 864.732 1205.83 850.227 1216.07 836.117C1221.94 828.024 1228.63 820.345 1233.79 811.915C1241.71 798.914 1239.9 784.666 1238.61 770.635C1237.65 760.345 1223.86 753.577 1211.38 752.093C1207.81 751.658 1204.13 752.034 1200.52 752.034" stroke="#1B72E0" stroke-linecap="round" stroke-linejoin="round"/>
<path d="M655.586 763.036C636.798 767.726 627.962 789.197 632.804 804.455C636.352 815.675 641.172 826.223 647.91 836.058C653.444 844.132 658.51 845.062 667.212 840.194C672.858 837.028 677.767 832.694 683.658 830.062C692.65 826.025 702.022 822.443 711.595 819.712C723.823 816.229 735.649 812.45 745.78 805.128C757.383 796.757 757.138 787.218 743.281 781.935C729.647 776.73 714.986 773.643 700.639 770.022C694.056 768.359 686.938 768.3 680.534 766.321C672.59 763.867 664.691 762.66 656.367 763.036" stroke="#0C40A5" stroke-linecap="round" stroke-linejoin="round"/>
<path d="M890.33 429.393C878.258 434.36 876.808 438.159 885.042 447.203C889.371 451.952 894.905 455.989 900.505 459.63C914.831 468.951 920.432 481.715 920.677 496.933C920.811 504.967 919.963 513.239 921.704 521.016C924.872 535.284 938.952 543.14 954.818 539.499C969.054 536.214 983.09 531.939 996.768 527.111C1009.29 522.698 1014.26 511.735 1010.02 500.396C1005.16 487.414 994.671 478.588 981.238 472.948C961.713 464.736 944.04 454.366 928.42 441.127C918.022 432.321 905.347 428.819 891.133 429.393" stroke="#0C40A5" stroke-linecap="round" stroke-linejoin="round"/>
<path d="M1167.05 798.874C1143.06 806.077 1127.33 821.988 1113.49 839.6C1102.45 853.67 1090.62 866.691 1074.69 876.942C1054.54 889.904 1063.42 914.838 1080.16 920.498C1086.63 922.675 1095.15 921.151 1102.49 920.063C1117.62 917.807 1132.5 914.383 1147.63 912.048C1160.29 910.089 1165.57 902.668 1167.78 892.635C1171.55 875.656 1175.66 858.716 1178.47 841.599C1180.19 831.19 1180.21 820.484 1180.08 809.917C1179.99 802.575 1175.64 799.349 1167.81 798.894" stroke="#0C40A5" stroke-linecap="round" stroke-linejoin="round"/>
<path d="M310.478 812.667C294.099 815.26 284.013 824.244 277.765 837.463C274.463 844.468 270.759 851.355 266.898 858.143C260.449 869.502 249.783 877.773 239.675 886.362C232.423 892.516 227.157 899.423 226.577 908.486C226.041 916.797 227.67 924.654 235.101 930.511C241.683 935.716 249.649 935.498 256.745 932.431C266.72 928.097 276.069 922.596 285.575 917.411C291.154 914.383 296.397 910.88 301.931 907.813C327.615 893.605 374.787 901.758 394.289 917.549C398.73 921.131 402.166 925.92 405.156 930.59C409.262 937.002 412.654 943.809 416.135 950.538C423.253 964.311 435.481 972.345 451.926 975.274C466.363 977.866 480.845 980.973 495.461 981.963C513.647 983.19 531.074 979.529 546.761 970.525C565.349 959.858 583.936 949.192 602.747 938.842C619.639 929.561 625.931 915.531 626.801 898.809C626.891 896.969 626.801 895.128 626.801 893.288C626.801 879.198 619.594 872.509 603.483 871.936C587.172 871.362 570.838 871.184 554.526 870.432C549.037 870.174 543.525 869.027 538.215 867.72C524.157 864.238 510.166 860.537 496.22 856.718C479.306 852.087 463.864 844.706 450.454 834.574C436.262 823.868 420.731 822.028 402.902 824.818C378.892 828.598 355.396 826.44 332.881 816.962C326.365 814.211 318.488 813.993 311.236 812.608" stroke="#1B72E0" stroke-linecap="round" stroke-linejoin="round"/>
<path d="M1784.21 820.939C1773.07 824.62 1761.74 827.885 1750.83 832.061C1733.15 838.809 1715.57 838.274 1697.94 832.615C1672.24 824.363 1646.31 824.857 1620.2 830.596C1603.09 834.356 1585.68 834.871 1568.12 834.93C1559.57 834.95 1550.92 836.612 1542.5 838.294C1531.7 840.431 1525.43 847.1 1521.39 856.084C1515.1 870.095 1512.58 884.838 1509.83 899.541C1507.92 909.871 1506.31 920.241 1504.35 930.551C1502.72 939.001 1503.32 946.996 1510.66 953.249C1517.11 958.73 1524.72 958.869 1531.52 953.941C1534.92 951.488 1538.44 948.856 1540.78 945.67C1551.34 931.382 1567.54 925.9 1585.23 923.11C1597.8 921.111 1610.65 920.518 1623.28 918.796C1641.47 916.303 1659.65 913.691 1677.68 910.465C1689.49 908.347 1700.93 904.706 1712.71 902.391C1732.44 898.512 1752.54 899.858 1772.54 899.423C1780.08 899.264 1787.64 898.037 1795.05 896.692C1802.1 895.425 1806.48 890.419 1806.72 884.383C1807.44 867.048 1804.22 850.128 1799.67 833.386C1797.84 826.658 1794.07 821.196 1784.97 820.959" stroke="#1B72E0" stroke-linecap="round" stroke-linejoin="round"/>
<path d="M1639.64 842.984C1618.75 847.437 1598.71 853.927 1579.79 862.991C1577.13 864.257 1574.3 865.445 1572.07 867.166C1563.81 873.519 1563.81 878.604 1571.22 885.748C1588.54 902.43 1609.94 905.438 1634.26 902.589C1647.67 901.025 1661.26 900.313 1673.75 895.86C1686.23 891.408 1699.1 887.054 1708.81 878.129C1714.23 873.143 1714.3 870.748 1708.81 865.761C1690.02 848.762 1667.46 840.59 1640.44 842.984" stroke="#0C40A5" stroke-linecap="round" stroke-linejoin="round"/>
<path d="M394.423 851.256C385.363 853.551 376.282 855.827 367.222 858.162C365.883 858.499 364.522 858.914 363.34 859.548C350.598 866.315 350.107 872.747 362.648 880.069C369.855 884.284 377.933 887.45 385.899 890.478C402.791 896.89 414.863 907.635 424.078 921.507C428.006 927.404 433.004 932.807 438.002 938.071C446.437 946.956 459.513 947.154 470.492 940.069C482.073 932.589 491.043 923.071 495.528 910.564C500.258 897.384 497.536 887.371 484.482 879.653C467.189 869.442 449.115 860.418 429.478 853.809C418.031 849.97 406.606 852.047 395.204 851.236" stroke="#0C40A5" stroke-linecap="round" stroke-linejoin="round"/>
<path d="M242.085 246.027C234.186 249.292 231.307 254.892 234.32 261.185C237.421 267.676 244.361 270.15 252.216 268.151C258.798 266.489 263.953 263.461 267.768 258.435C269.71 255.862 269.598 253.883 267.032 251.469C260.182 245.018 251.435 245.968 242.866 246.007" stroke="#0C40A5" stroke-linecap="round" stroke-linejoin="round"/>
<path d="M446.504 230.176C430.929 233.441 423.297 243.929 416.916 255.664C412.966 262.927 412.363 270.526 412.14 278.422C411.806 291.225 424.859 298.884 437.891 294.847C463.909 286.812 476.204 257.049 456.456 235.084C454.358 232.748 450.364 231.779 447.263 230.156" stroke="#0C40A5" stroke-linecap="round" stroke-linejoin="round"/>
<path d="M1142.17 207.418C1131.48 209.655 1121.91 213.85 1112.49 218.936C1102.29 224.437 1090.87 227.663 1078.42 226.792C1071.97 226.337 1065.43 227.128 1059 226.614C1050.3 225.921 1045.08 228.731 1043.47 239.121C1041.08 254.536 1037.6 269.616 1030.4 284.002C1026.56 291.661 1024.28 299.952 1021.72 308.066C1013.44 334.148 1032.27 359.893 1058.22 362.446C1064.4 363.06 1070.67 363.376 1076.85 363.099C1090.29 362.505 1102.58 366.107 1114.99 369.986C1128.04 374.082 1141.21 378.06 1154.64 380.949C1170.1 384.273 1176.86 379.287 1178.76 365.256C1179.7 358.33 1181.04 351.424 1182.64 344.577C1185.68 331.753 1194 322.551 1207.43 316.951C1210.47 315.684 1213.01 313.508 1216.03 312.221C1243.63 300.526 1248.65 273.573 1230.73 250.855C1222.85 240.882 1211.65 234.252 1199.65 228.83C1189.23 224.12 1178.54 219.826 1167.78 215.73C1159.66 212.643 1151.23 210.149 1142.95 207.399" stroke="#1B72E0" stroke-linecap="round" stroke-linejoin="round"/>
<path d="M1513.72 201.917C1501.04 204.45 1490.71 209.932 1483.35 219.806C1470.56 236.944 1474.78 248.718 1496.67 254.873C1506.8 257.722 1517.49 258.573 1527.69 254.912C1542.59 249.569 1550.42 236.152 1547.14 222.577C1543.89 209.14 1532.44 201.897 1514.5 201.897" stroke="#0C40A5" stroke-linecap="round" stroke-linejoin="round"/>
<path d="M1505.95 171.58C1498.95 173.658 1491.47 174.905 1485.09 177.972C1475.58 182.524 1467.44 188.856 1462.42 197.761C1455.25 210.446 1446.55 222.597 1441 235.796C1432.7 255.486 1443.52 270.209 1463.33 276.047C1476.72 279.985 1491.14 281.39 1505.22 283.112C1517.82 284.655 1530.63 284.734 1543.26 286.08C1558.06 287.643 1566.56 296.291 1571.18 308.085C1575.71 319.682 1580.66 331.298 1583.4 343.27C1586.35 356.074 1586.51 369.352 1573.54 379.01C1565.35 385.124 1555.15 387.083 1544.82 387.954C1531.55 389.082 1519.03 386.609 1506.69 381.938C1486.2 374.201 1479.22 378.752 1470.43 388.172C1466.57 392.308 1464.27 397.928 1462.6 403.212C1457.78 418.35 1461.46 432.677 1470.43 445.798C1472.66 449.063 1477.1 452.467 1481.16 453.258C1508.05 458.502 1534.76 460.62 1560.44 448.093C1574.5 441.246 1585.5 431.747 1594.47 420.349C1601.14 411.879 1608.42 404.181 1620.27 401.945C1628.9 400.303 1637.83 399.491 1646.66 399.155C1659.27 398.7 1671.28 396.266 1683.21 392.901C1698.68 388.528 1714.19 384.273 1729.87 380.553C1739.27 378.317 1749.09 377.486 1758.57 375.507C1763.39 374.498 1768.54 373.152 1772.47 370.659C1788.51 360.507 1787.4 346.1 1775.3 333.871C1760.62 319.029 1743.17 306.324 1726.68 292.927C1713.12 281.924 1695.96 279.055 1678.53 277.828C1659.41 276.463 1640.13 276.403 1621.05 274.78C1608.64 273.732 1594.85 272.92 1587.89 261.72C1583.78 255.11 1581.69 247.274 1579.99 239.774C1576.13 222.755 1570.42 206.627 1558.97 192.161C1547.99 178.309 1533.55 171.303 1514.54 171.541C1511.95 171.58 1509.37 171.541 1506.78 171.541" stroke="#1B72E0" stroke-linecap="round" stroke-linejoin="round"/>
<path d="M1163.94 157.787C1144.71 159.232 1132.66 171.521 1118.83 181.178C1112.85 185.354 1106.58 189.232 1100.17 192.893C1089.17 199.206 1077.72 199.978 1066.01 194.318C1056.95 189.945 1048.02 185.314 1038.76 181.277C1019.55 172.867 1002.37 181.95 1001.81 200.532C1001.52 209.912 1003.55 219.628 1006.36 228.731C1012.19 247.531 1011.56 265.776 1003.82 283.943C999.178 294.847 994.916 305.711 995.162 317.723C995.563 339.233 1004.09 357.756 1020.22 373.488C1029.68 382.73 1040.17 390.883 1052.64 397.215C1063.17 402.578 1072.44 409.92 1082.34 416.272C1092.65 422.902 1103.45 425.494 1116.62 422.783C1130.05 420.012 1144.02 421.516 1157.74 423.159C1180.21 425.85 1200.74 421.398 1218.21 408.535C1224.33 404.023 1229.3 398.007 1233.77 392.07C1239.48 384.471 1235.53 376.16 1232.87 368.798C1227.76 354.59 1238.41 342.538 1255.68 339.847C1261.37 338.956 1269.04 345.467 1268.66 351.483C1268.29 357.499 1266.7 363.554 1264.89 369.392C1261.7 379.663 1269.83 385.006 1278.19 385.243C1297.09 385.777 1314.1 379.801 1330.16 372.004C1341.23 366.641 1345.8 356.707 1346.36 345.962C1346.74 338.66 1345.8 331.12 1344.09 323.937C1341.14 311.707 1329.54 307.551 1317.82 303.93C1317.35 303.791 1316.77 303.989 1316.28 303.91C1301.56 301.357 1292.18 294.609 1289.66 280.519C1286.38 262.135 1278.48 245.136 1265.7 230.215C1257.73 220.915 1248.89 212.564 1237.09 206.587C1222.03 198.969 1208.66 189.43 1199.6 175.756C1192.75 165.406 1182.24 159.865 1168.59 159.113C1167.27 159.034 1166 158.243 1164.7 157.787" stroke="#1B72E0" stroke-linecap="round" stroke-linejoin="round"/>
<path d="M1491.96 138.493C1475.58 139.997 1461.84 147.992 1446.95 153.157C1436.27 156.877 1425.33 157.926 1414.24 159.232C1398.93 161.053 1383.52 161.488 1368.99 167.84C1357.14 173.025 1353.9 182.445 1357.3 193.665C1361.36 207.141 1368.61 219.213 1378.74 229.246C1392.46 242.801 1402.48 258.177 1410.87 274.365C1418.15 288.415 1429.46 298.963 1442.25 308.699C1450.03 314.636 1458.56 320.256 1456.82 330.764C1456.04 335.493 1453.67 340.104 1451.48 344.557C1444.39 359.082 1436.69 373.409 1429.86 388.033C1423.01 402.717 1411.45 412.829 1394.78 418.291C1372.58 425.573 1353.68 437.743 1335 450.112C1307.51 468.278 1277.48 480.626 1243.23 484.525C1210.4 488.265 1181.71 499.624 1159.33 521.768C1142.61 538.312 1120.48 537.856 1102.6 525.785C1081.61 511.596 1061.99 495.725 1047.71 476.035C1036.82 461.035 1022.32 450.646 1005.29 442.612C992.082 436.378 980.769 428.166 970.549 418.904C951.158 401.312 928.019 389.715 902.09 381.622C890.776 378.079 880.066 372.934 869.422 367.928C855.186 361.239 847.51 350.197 844.43 336.305C843.002 329.853 839.923 323.363 832.001 322.076C824.638 320.869 816.315 320.77 811.182 327.4C809.196 329.972 807.478 333.277 807.344 336.305C806.653 354.273 801.119 370.659 786.86 383.759C776.774 393.02 771.686 404.161 769.232 416.272C764.345 440.455 749.082 459.61 732.615 478.311C725.898 485.95 719.762 494.004 713.112 501.702C706.039 509.875 698.563 517.751 691.423 525.884C688.12 529.644 684.751 533.463 682.163 537.619C677.454 545.159 679.396 549.928 687.473 554.163C695.35 558.298 704.187 558.754 712.331 557.329C742.901 552.006 765.327 562.711 783.111 583.747C784.45 585.33 785.834 586.894 786.994 588.576C799.668 606.96 806.429 606.208 827.382 602.784C836.129 601.36 843.493 602.863 851.593 604.941C865.651 608.543 878.972 615.627 894.28 613.945C904.477 612.817 914.541 610.502 924.605 608.543C951.203 603.398 977.801 602.527 1004.69 607.098C1023.55 610.304 1042.38 611.116 1061.48 606.703C1080.4 602.329 1091.69 609.631 1096.4 631.32C1099.32 644.737 1105.35 656.591 1121.35 660.747C1132.44 663.616 1144.04 662.785 1155.51 660.351C1179.74 655.225 1202.19 646.578 1223.08 634.704C1234.3 628.312 1246.77 625.68 1259.65 625.265C1279.87 624.612 1298.81 621.544 1314.05 608.563C1325.16 599.104 1339.15 593.879 1352.97 588.675C1369.66 582.382 1383.2 572.903 1393.31 559.605C1397.82 553.688 1402.68 547.929 1406.43 541.636C1413.73 529.347 1426.8 523.727 1440.06 519.156C1456.88 513.358 1472.28 505.699 1486.56 496.141C1498.99 487.849 1512.65 482.21 1527.75 478.845C1548.42 474.235 1567.45 466.042 1584.41 454.683C1596.39 446.649 1607.82 437.803 1618.57 428.482C1627.74 420.527 1638.63 415.956 1650.64 414.373C1670.16 411.78 1688.24 405.685 1706.69 400.006C1720.28 395.81 1734.98 394.247 1749.33 392.189C1766.6 389.715 1784.01 388.192 1796.77 375.586C1807.95 364.544 1808.08 349.385 1800.36 338.462C1794.65 330.388 1787.15 323.145 1779.5 316.377C1768.61 306.74 1756.43 298.23 1745.52 288.613C1729.45 274.424 1710.55 266.707 1687.92 265.104C1674.62 264.154 1661.17 262.59 1648.34 259.523C1626.31 254.259 1610.87 241.574 1600.72 223.27C1590.41 204.648 1578.18 186.818 1568.5 167.959C1561.22 153.79 1551.21 144.766 1533.24 143.183C1519.72 141.996 1506.29 140.056 1492.81 138.434" stroke="#1B72E0" stroke-linecap="round" stroke-linejoin="round"/>
<path d="M1708.05 131.607C1693.99 135.109 1680.27 139.225 1665.32 140.215C1648.03 141.382 1643.03 154.344 1647.87 165.208C1651.82 174.054 1658.8 182.346 1666.35 189.252C1674.71 196.95 1684.71 203.56 1694.97 209.279C1706.49 215.69 1719.81 216.64 1732.89 213.494C1747.64 209.932 1754.26 199.028 1750.78 185.354C1746.36 167.979 1739.29 151.712 1725.19 138.454C1720.68 134.219 1715.35 131.903 1708.83 131.587" stroke="#0C40A5" stroke-linecap="round" stroke-linejoin="round"/>
<path d="M1076.88 124.7C1066.28 127.352 1066.25 132.2 1072.21 144.687C1072.43 145.162 1072.68 145.637 1072.99 146.072C1076.32 150.703 1079.78 155.492 1086.96 154.938C1091.69 154.562 1097.11 147.893 1097.85 142.629C1098.74 136.316 1095.73 130.894 1089.26 128.223C1085.58 126.699 1081.52 125.848 1077.63 124.7" stroke="#1B72E0" stroke-linecap="round" stroke-linejoin="round"/>
<path d="M1706.49 87.4769C1683.44 93.2751 1663.27 104.179 1643.56 115.795C1620.69 129.271 1613.91 160.479 1630.49 182.524C1642.56 198.573 1657.35 212.682 1676.99 221.845C1690.29 228.058 1704.5 231.977 1719.7 232.214C1730.32 232.372 1740.94 232.471 1751.56 232.155C1757.28 231.977 1763.05 231.245 1768.66 230.097C1779.99 227.781 1785.35 221.251 1784.77 208.131C1784.28 196.831 1783.61 185.156 1779.97 174.43C1771.91 150.624 1762.07 127.352 1747.03 106.019C1737.62 92.6814 1724.34 87.2196 1707.27 87.4769" stroke="#1B72E0" stroke-linecap="round" stroke-linejoin="round"/>
<path d="M551.447 44.7523C544.708 46.8301 537.634 48.2747 531.297 51.0848C516.682 57.5756 510.545 70.4187 513.245 84.746C516.302 100.993 518.623 117.339 521.1 133.684C523.554 149.911 537.01 151.811 549.082 145.36C563.72 137.563 573.493 125.927 577.577 111.54C581.303 98.44 586.993 85.6167 586.525 71.6258C586.011 56.7247 573.025 44.8512 556.088 44.7523C554.794 44.7523 553.5 44.7523 552.206 44.7523" stroke="#0C40A5" stroke-linecap="round" stroke-linejoin="round"/>
<path d="M109.941 6.1438C105.233 8.02376 101.417 10.7547 102.288 15.7811C103.202 21.0845 106.304 25.7152 112.351 27.3181C115.074 28.0305 119.581 27.516 121.344 25.9131C123.531 23.8946 125.093 19.8972 124.445 17.2455C122.95 11.1306 118.086 7.17283 110.745 6.16359" stroke="#1B72E0" stroke-linecap="round" stroke-linejoin="round"/>
<path d="M503.249 477.638C497.291 478.549 491.177 479.004 485.397 480.468C458.955 487.216 439.363 500.594 431.71 525.191C429.077 533.661 431.71 541.656 437.377 547.791C457.036 569.024 466.341 594.968 479.886 618.952C491.712 639.948 511.482 651.525 536.72 655.146C549.349 656.967 562.827 656.888 575.479 655.166C602.524 651.465 604.621 637.455 606.585 620.99C608.37 606.069 609.798 591.129 611.271 576.188C612.52 563.562 610.401 551.926 599.667 542.368C582.329 526.913 564.322 512.051 549.684 494.281C541.272 484.089 528.463 479.597 514.138 478.944C510.746 478.786 507.399 478.074 504.03 477.618" stroke="#1B72E0" stroke-linecap="round" stroke-linejoin="round"/>
<path d="M1732.91 465.231C1719.74 467.882 1709.21 474.67 1699.55 482.526C1687.39 492.401 1675.61 502.652 1663.76 512.823C1655.17 520.205 1649.19 529.327 1648.65 539.717C1648.32 546.049 1650.59 553.688 1654.74 558.793C1670.81 578.582 1687.77 597.837 1705.08 616.815C1716.13 628.906 1729.92 628.134 1743.69 621.505C1752.77 617.151 1760.35 610.641 1764.88 601.775C1774.95 582.045 1787.93 563.879 1803.64 547.256C1805.21 545.614 1806.21 543.556 1807.57 541.775C1818.75 527.23 1815.92 514.881 1802.86 503.898C1791.15 494.043 1779.39 484.208 1767.05 475.026C1757.63 468.021 1746.59 463.825 1733.73 465.27" stroke="#1B72E0" stroke-linecap="round" stroke-linejoin="round"/>
<path d="M245.187 429.392C229.634 431.292 222.159 440.85 218.075 452.862C211.492 472.216 202.745 490.719 192.414 508.707C187.014 518.107 189.379 529.149 197.881 533.265C202.611 535.561 208.681 536.847 214.081 536.728C232.468 536.273 249.85 538.826 267.032 545.02C288.498 552.738 299.298 547.335 307.019 527.863C311.214 517.296 315.431 505.838 311.125 494.221C308.67 487.592 304.944 481.339 301.931 474.868C299.477 469.624 297.201 464.32 294.925 459.017C287.204 440.93 270.558 429.333 245.945 429.373" stroke="#0C40A5" stroke-linecap="round" stroke-linejoin="round"/>
<path d="M992.93 763.036C979.14 765.114 969.657 771.803 963.252 782.964C955.844 795.866 942.567 804.494 931.5 814.706C925.743 820.009 921.726 825.827 920.521 833.327C919.517 839.62 919.584 845.379 926.144 849.139C933.195 853.176 940.961 852.245 947.766 849.059C957.629 844.449 963.386 836.018 968.742 827.786C976.686 815.537 988.066 806.77 1001.43 799.468C1007.03 796.401 1012.57 792.779 1016.92 788.426C1027.47 777.858 1023.5 771.882 1012.25 766.717C1006.83 764.224 999.959 764.184 993.733 763.036" stroke="#0C40A5" stroke-linecap="round" stroke-linejoin="round"/>
</g>
</g>
<defs>
<clipPath id="clip0_11_2753">
<rect width="1820" height="1015.67" fill="white" transform="translate(0 0.325806)"/>
</clipPath>
</defs>
</svg>
