<?xml version="1.0"?>
<svg xmlns="http://www.w3.org/2000/svg" xmlns:xlink="http://www.w3.org/1999/xlink" xmlns:svgjs="http://svgjs.com/svgjs" version="1.1" width="512" height="512" x="0" y="0" viewBox="0 0 514 514.42745" style="enable-background:new 0 0 512 512" xml:space="preserve" class=""><g><path xmlns="http://www.w3.org/2000/svg" d="m24.328125 225.0625h369.742187v289.363281h-369.742187zm0 0" fill="#d7dee2" data-original="#d7dee2" style="" class=""/><g xmlns="http://www.w3.org/2000/svg" fill="#bfc9d1"><path d="m128.820312 514.425781h-32.152343v-112.53125c0-8.871093 7.203125-16.074219 16.078125-16.074219 8.871094 0 16.074218 7.203126 16.074218 16.074219zm0 0" fill="#bfc9d1" data-original="#bfc9d1" style="" class=""/><path d="m257.425781 514.425781h-32.148437v-112.53125c0-8.871093 7.199218-16.074219 16.074218-16.074219s16.074219 7.203126 16.074219 16.074219zm0 0" fill="#bfc9d1" data-original="#bfc9d1" style="" class=""/><path d="m321.730469 514.425781h-32.152344v-176.832031c0-8.875 7.203125-16.078125 16.078125-16.078125 8.871094 0 16.074219 7.203125 16.074219 16.078125zm0 0" fill="#bfc9d1" data-original="#bfc9d1" style="" class=""/><path d="m193.125 514.425781h-32.152344v-176.832031c0-8.875 7.203125-16.078125 16.074219-16.078125 8.875 0 16.078125 7.203125 16.078125 16.078125zm0 0" fill="#bfc9d1" data-original="#bfc9d1" style="" class=""/></g><path xmlns="http://www.w3.org/2000/svg" d="m418.1875 289.367188h-417.972656v-64.304688c0-17.765625 14.386718-32.152344 32.152344-32.152344h101.644531l24.164062-60.429687-29.355469-29.371094v-103.109375h160.757813v103.109375l-29.351563 29.371094 24.160157 60.429687h101.648437c17.761719 0 32.152344 14.386719 32.152344 32.152344zm0 0" fill="#f90000" data-original="#ceed5f" style="" class=""/><path xmlns="http://www.w3.org/2000/svg" d="m158.175781 132.480469-29.355469-29.371094h160.757813l-29.351563 29.371094zm0 0" fill="#f96900" data-original="#badb31" style="" class=""/></g></svg>
